<svg width="117.000000" height="36.000000" viewBox="0 0 117 36" fill="none" xmlns="http://www.w3.org/2000/svg" xmlns:xlink="http://www.w3.org/1999/xlink">
	<desc>
			Created with Pixso.
	</desc>
	<defs/>
	<path id="Houzing" d="M89.89 13.17C89.46 13.17 89.09 13.03 88.79 12.73Q88.56 12.5 88.44 12.22Q88.34 11.96 88.34 11.65Q88.34 11.36 88.44 11.1Q88.55 10.82 88.79 10.59C89.1 10.29 89.46 10.14 89.89 10.14C90.3 10.14 90.66 10.29 90.96 10.59Q91.2 10.82 91.31 11.1Q91.42 11.36 91.42 11.65Q91.42 11.96 91.31 12.22Q91.2 12.5 90.96 12.73C90.66 13.03 90.3 13.17 89.89 13.17ZM50.45 10.77L53.23 10.77L53.23 23.99L50.45 23.99L50.45 18.56L44.79 18.56L44.79 23.99L42 23.99L42 10.77L44.79 10.77L44.79 16.17L50.45 16.17L50.45 10.77ZM60.75 24.18Q59.22 24.18 58.05 23.6Q57.44 23.31 56.97 22.87Q56.52 22.45 56.19 21.91Q56.19 21.9 56.18 21.88Q55.52 20.78 55.52 19.28Q55.52 17.66 56.27 16.52Q56.56 16.08 56.97 15.71Q57.23 15.48 57.51 15.29Q58.83 14.4 60.75 14.4Q62.69 14.4 64.01 15.3Q64.28 15.49 64.53 15.71Q64.94 16.08 65.23 16.52Q65.98 17.66 65.98 19.28Q65.98 20.92 65.23 22.06Q64.93 22.5 64.53 22.87Q64.28 23.09 64.01 23.28Q62.69 24.18 60.75 24.18ZM99.6 14.4C100.75 14.4 101.63 14.68 102.24 15.25C102.85 15.81 103.16 16.62 103.16 17.66L103.16 23.99L100.48 23.99L100.48 18.23C100.48 17.64 100.32 17.2 99.99 16.93C99.68 16.65 99.27 16.52 98.77 16.52C98.48 16.52 98.21 16.55 97.97 16.63C97.73 16.71 97.51 16.84 97.3 17.01C97.1 17.17 96.94 17.41 96.82 17.71C96.71 18.02 96.65 18.38 96.65 18.8L96.65 23.99L93.98 23.99L93.98 14.58L96.65 14.58L96.65 15.63C97.35 14.81 98.34 14.4 99.6 14.4ZM112.32 14.58L114.86 14.58L114.86 23.29C114.86 24.19 114.74 24.97 114.5 25.63C114.27 26.3 113.92 26.83 113.47 27.24Q113.3 27.39 113.11 27.53Q112.56 27.92 111.88 28.14Q110.97 28.44 109.81 28.44C107.29 28.44 105.65 27.46 104.89 25.51L107.11 24.58C107.38 25.2 107.72 25.65 108.14 25.95C108.55 26.24 109.07 26.38 109.7 26.38Q110.75 26.38 111.35 25.87Q112.18 25.16 112.18 23.48L112.18 22.38C111.9 22.77 111.49 23.08 110.97 23.32C110.46 23.55 109.9 23.67 109.29 23.67C108.7 23.67 108.14 23.56 107.61 23.34C107.08 23.11 106.62 22.8 106.23 22.4C105.83 22 105.52 21.5 105.28 20.92C105.05 20.33 104.94 19.7 104.94 19.01C104.94 18.32 105.05 17.69 105.28 17.11C105.52 16.52 105.83 16.04 106.23 15.65C106.63 15.25 107.09 14.95 107.62 14.73C108.15 14.51 108.71 14.4 109.31 14.4C109.96 14.4 110.55 14.53 111.07 14.79C111.59 15.05 111.99 15.4 112.26 15.83L112.32 14.58ZM74.29 14.58L76.96 14.58L76.96 23.99L74.43 23.99L74.36 22.86Q74.05 23.25 73.65 23.53Q72.72 24.18 71.33 24.18C70.18 24.18 69.31 23.9 68.69 23.34C68.08 22.77 67.78 21.96 67.78 20.92L67.78 14.58L70.46 14.58L70.46 20.35C70.46 20.94 70.61 21.37 70.93 21.64C71.25 21.92 71.66 22.05 72.17 22.05C72.79 22.05 73.29 21.88 73.68 21.52C74.08 21.16 74.28 20.58 74.29 19.77L74.29 14.58ZM86.69 14.58L82.49 21.96L86.56 21.96L86.56 23.99L78.7 23.99L82.87 16.62L79.03 16.62L79.03 14.58L86.69 14.58ZM88.52 23.99L88.52 14.58L91.21 14.58L91.21 23.99L88.52 23.99ZM60.72 22.08C61.5 22.08 62.12 21.83 62.6 21.31Q62.74 21.17 62.85 21.01Q63.32 20.31 63.32 19.28C63.32 18.44 63.08 17.76 62.6 17.25Q62.36 16.99 62.07 16.82Q61.5 16.48 60.72 16.48Q60.05 16.48 59.53 16.75Q59.17 16.94 58.88 17.26Q58.76 17.39 58.66 17.53L58.66 17.53Q58.18 18.24 58.18 19.28C58.18 20.12 58.41 20.79 58.88 21.31Q59.16 21.62 59.51 21.8L59.51 21.8Q60.04 22.08 60.72 22.08ZM108.22 20.81C108.7 21.29 109.28 21.53 109.97 21.53Q110.52 21.53 110.98 21.33Q111.39 21.15 111.73 20.8C112.2 20.31 112.44 19.72 112.44 19.01C112.44 18.31 112.2 17.71 111.73 17.22Q111.41 16.89 111.02 16.71Q110.55 16.49 109.97 16.49Q109.37 16.49 108.87 16.73Q108.51 16.9 108.21 17.21C107.75 17.69 107.52 18.29 107.52 19.01Q107.52 19.66 107.77 20.18Q107.94 20.52 108.22 20.81Z" fill="#FFFFFF" fill-opacity="1.000000" fill-rule="evenodd"/>
	<path id="Vector" d="M7.32 17.7L7.32 10.42L15.19 5.96C17.82 7.44 20.44 8.93 23.06 10.42L23.06 21.69L8.94 21.69L1.63 21.69C1.36 21.1 1.09 20.51 0.87 19.89C-0.04 17.38 -0.24 14.68 0.27 12.08C0.82 9.25 2.22 6.55 4.45 4.36C7.41 1.45 11.3 0 15.19 0C19.08 0 22.97 1.45 25.93 4.36C28.9 7.28 30.38 11.09 30.38 14.91C30.38 18.72 28.9 22.54 25.93 25.45L15.19 36L4.45 25.45C3.99 25.01 3.56 24.53 3.17 24.03L6.35 24.03L15.19 32.7L24.26 23.8C26.76 21.35 28.01 18.12 28.01 14.91C28.01 11.69 26.76 8.47 24.26 6.01C21.75 3.55 18.47 2.32 15.19 2.32C11.91 2.32 8.63 3.55 6.12 6.01C4.24 7.86 3.07 10.13 2.6 12.51C2.15 14.79 2.35 17.16 3.2 19.36L20.69 19.36L20.69 11.76C18.85 10.71 17.02 9.68 15.19 8.64L9.69 11.76L9.69 17.7L7.32 17.7L7.32 17.7Z" fill="#FFFFFF" fill-opacity="1.000000" fill-rule="nonzero"/>
</svg>
